<svg width="168" height="25" viewBox="0 0 168 25" fill="none" xmlns="http://www.w3.org/2000/svg">
<path d="M40.3057 18.9632H43.135L45.6585 10.5297L48.1946 18.9632H51.0144L54.9966 6.10107H51.6487L49.434 14.1354L47.0134 6.10107H44.3225L41.8862 14.1613L39.6998 6.10107H36.3518L40.3057 18.9632Z" fill="#303030"/>
<path d="M56.8892 3.66736H60.1852V0.770508H56.8892V3.66736ZM56.9677 18.9634H60.1114V6.1013H56.9677V18.9634Z" fill="#303030"/>
<path d="M67.7436 19.2212C70.1799 19.2212 72.7648 17.9079 72.7648 14.9333C72.7648 10.2076 66.2237 11.3668 66.2237 9.42249C66.2237 8.81734 66.8524 8.31515 67.8843 8.31515C68.4219 8.31222 68.9487 8.46513 69.4012 8.75539C69.8537 9.04564 70.2123 9.46079 70.4338 9.95061L72.8701 8.62479C72.3953 7.75284 71.6876 7.0299 70.826 6.53659C69.9644 6.04327 68.9827 5.79896 67.9904 5.8309C65.5054 5.8309 63.2137 7.11821 63.2137 9.83902C63.2137 14.3839 69.677 12.9292 69.677 15.092C69.677 15.7742 69.0482 16.6245 67.5912 16.6245C66.9642 16.628 66.3539 16.4222 65.8571 16.0397C65.3603 15.6572 65.0053 15.1199 64.8484 14.5128L62.3484 15.6162C62.7513 16.7102 63.4905 17.6483 64.4598 18.296C65.4291 18.9437 66.5788 19.2676 67.7436 19.2212Z" fill="#303030"/>
<path d="M80.915 19.2218C81.9117 19.2512 82.9025 19.0584 83.8155 18.6576C84.7286 18.2567 85.541 17.6578 86.194 16.9042L84.0304 15.0117C83.6504 15.456 83.1756 15.8093 82.6409 16.0456C82.1062 16.2819 81.5253 16.3951 80.941 16.3768C78.9188 16.3768 77.9922 15.2435 77.7187 13.557H86.5515C86.6397 13.1511 86.6785 12.736 86.6671 12.3208C86.6671 9.44985 85.2124 5.83154 80.706 5.83154C76.3536 5.83154 74.3967 9.23058 74.3967 12.5785C74.3999 16.0412 76.4857 19.2218 80.915 19.2218ZM77.7219 11.2904C78.0182 9.68091 78.8292 8.47061 80.6832 8.47061C81.3114 8.4198 81.9373 8.5939 82.4491 8.96185C82.9608 9.3298 83.3252 9.86765 83.4771 10.4794C83.5507 10.7433 83.5854 11.0165 83.58 11.2904H77.7219Z" fill="#303030"/>
<path d="M89.3124 18.9636H92.3507V13.5306C92.3507 10.2604 93.8832 8.89376 95.3505 8.89376C95.8516 8.8966 96.3403 9.04903 96.7542 9.33151L98.1829 6.7561C97.8704 6.45386 97.5012 6.21634 97.0966 6.0572C96.692 5.89805 96.2599 5.82041 95.8252 5.82873C95.0689 5.82857 94.3311 6.06272 93.7133 6.499C93.0954 6.93527 92.628 7.55223 92.3751 8.26504V6.10144H89.3101L89.3124 18.9636Z" fill="#303030"/>
<path d="M99.8931 18.9635H103.037V11.921C103.037 9.68037 104.144 8.72785 105.908 8.72785C107.517 8.72785 108.367 9.95072 108.367 11.6357V18.9619H111.511V11.2365C111.511 8.54552 110.185 5.82865 106.811 5.82865C106.091 5.8259 105.38 5.98261 104.728 6.28753C104.075 6.59245 103.499 7.03801 103.039 7.59222V6.099H99.8954L99.8931 18.9635Z" fill="#303030"/>
<path d="M120.262 19.2219C121.143 19.2365 122.017 19.0716 122.832 18.7373C123.647 18.403 124.385 17.9064 125.002 17.2776C125.619 16.6488 126.101 15.901 126.42 15.0798C126.738 14.2586 126.886 13.3811 126.855 12.5009C126.864 11.6291 126.701 10.764 126.374 9.95584C126.047 9.14765 125.563 8.41234 124.95 7.79249C124.336 7.17264 123.606 6.68055 122.802 6.34471C121.997 6.00886 121.134 5.83594 120.262 5.83594C119.39 5.83594 118.527 6.00886 117.723 6.34471C116.918 6.68055 116.188 7.17264 115.575 7.79249C114.962 8.41234 114.478 9.14765 114.151 9.95584C113.824 10.764 113.66 11.6291 113.67 12.5009C113.638 13.3811 113.786 14.2585 114.104 15.0797C114.423 15.9009 114.905 16.6487 115.522 17.2775C116.139 17.9063 116.877 18.403 117.692 18.7373C118.507 19.0716 119.381 19.2365 120.262 19.2219ZM120.262 16.5184C117.893 16.5184 116.941 14.6126 116.941 12.5009C116.941 10.3892 117.893 8.54777 120.262 8.54777C122.644 8.54777 123.584 10.3892 123.584 12.5009C123.584 14.6126 122.644 16.5184 120.262 16.5184Z" fill="#303030"/>
<path d="M133.898 19.2221C134.695 19.2216 135.486 19.0913 136.241 18.8362V15.9905C135.684 16.2685 135.074 16.4264 134.452 16.4541C133.628 16.4541 133.022 16.0934 133.022 14.858V8.72791H136.245V6.1022H133.022V0.668457L129.932 2.90907V6.1022H127.81V8.7287H129.884V15.4089C129.881 17.754 131.387 19.2221 133.898 19.2221Z" fill="#303030"/>
<path d="M139.06 3.66736H142.361V0.770508H139.06V3.66736ZM139.139 18.9634H142.283V6.1013H139.139V18.9634Z" fill="#303030"/>
<path d="M146.787 18.9633H150.031V8.72764H153.031V6.10115H150.031V4.69752C150.031 3.69313 150.585 3.29389 151.215 3.29389C151.572 3.31198 151.919 3.42306 152.22 3.61611L153.25 1.02813C152.519 0.690368 151.725 0.510417 150.92 0.5C148.756 0.5 146.812 1.87769 146.812 4.3753V6.10429H144.43V8.73079H146.788L146.787 18.9633Z" fill="#303030"/>
<path d="M156.263 24.4999H159.688L167.038 6.10107H163.588L160.293 15.0392L157.048 6.10343H153.599L158.629 18.6158L156.263 24.4999Z" fill="#303030"/>
<path d="M16.7329 21.2687L9.1096 11.1085C8.93673 10.8784 8.81217 10.6158 8.74342 10.3363C8.67467 10.0568 8.66315 9.76634 8.70955 9.4823C8.75595 9.19826 8.8593 8.92654 9.01341 8.68347C9.16752 8.4404 9.36919 8.23101 9.60629 8.06788C10.0907 7.72819 10.6877 7.58867 11.2725 7.67843C11.8573 7.76819 12.3849 8.0803 12.7452 8.54964L18.5648 16.3081L20.1366 14.2184C20.497 13.7492 21.0246 13.4372 21.6094 13.3475C22.1942 13.2577 22.791 13.3971 23.2755 13.7366C23.5121 13.9005 23.7134 14.1101 23.8676 14.353C24.0217 14.596 24.1256 14.8674 24.173 15.1512C24.2191 15.4349 24.2072 15.7249 24.1382 16.0038C24.0692 16.2827 23.9444 16.5447 23.7715 16.7741L20.5233 21.1021C20.4571 21.1895 20.3846 21.272 20.3064 21.3489C20.18 21.5021 20.0333 21.6372 19.8702 21.7505C19.3857 22.09 18.7888 22.2294 18.2041 22.1396C17.6193 22.0499 17.0917 21.7379 16.7313 21.2687H16.7329ZM8.05334 21.2687L0.427707 11.1085C0.254871 10.8784 0.130366 10.6157 0.061677 10.3362C-0.00701171 10.0567 -0.0184646 9.76617 0.028007 9.48212C0.0744786 9.19808 0.177915 8.92637 0.332095 8.68333C0.486276 8.44029 0.688016 8.23095 0.925185 8.06788C1.40964 7.72819 2.00655 7.58867 2.59138 7.67843C3.17621 7.76819 3.7038 8.0803 4.06409 8.54964L11.6874 18.709C11.9495 19.0543 12.0996 19.4717 12.1175 19.9048C12.1353 20.338 12.0201 20.7663 11.7872 21.132C11.633 21.3755 11.4315 21.5855 11.1946 21.7497C10.71 22.089 10.1132 22.2283 9.5285 22.1386C8.94378 22.0488 8.41623 21.737 8.0557 21.2679L8.05334 21.2687Z" fill="#303030"/>
<path d="M23.0244 6.90298C22.8518 6.49147 23.294 6.0925 23.6856 6.30643L25.1768 7.12102C25.3493 7.21525 25.5621 7.19268 25.711 7.06437L26.9981 5.95513C27.3361 5.66381 27.8522 5.96114 27.7698 6.3997L27.4559 8.06958C27.4195 8.26274 27.5068 8.45818 27.6748 8.56012L29.1275 9.44147C29.509 9.67293 29.3857 10.2557 28.9432 10.3128L27.258 10.5302C27.0631 10.5554 26.9042 10.6987 26.8591 10.8901L26.4698 12.544C26.3676 12.9784 25.7753 13.0412 25.5842 12.6379L24.8566 11.1024C24.7725 10.9248 24.587 10.818 24.3912 10.8343L22.6979 10.9751C22.2532 11.0121 22.0104 10.4682 22.3349 10.1619L23.5704 8.99542C23.7133 8.8605 23.7576 8.65111 23.6816 8.46986L23.0244 6.90298Z" fill="#645CFC"/>
</svg>
