<svg width="102" height="23" viewBox="0 0 102 23" fill="none" xmlns="http://www.w3.org/2000/svg">
<path d="M101.232 3.02718C101.769 3.15508 102.101 3.69431 101.973 4.23158L99.8886 12.9869C99.7607 13.5242 99.2215 13.8561 98.6842 13.7282C98.147 13.6003 97.8151 13.061 97.943 12.5238L99.7956 4.74124L92.0131 2.88863C91.4758 2.76073 91.1439 2.22151 91.2718 1.68424C91.3997 1.14697 91.939 0.8151 92.4762 0.942997L101.232 3.02718ZM1 4C1.52414 3.14837 1.52412 3.14836 1.52411 3.14835C1.5241 3.14835 1.52409 3.14834 1.52409 3.14834C1.52408 3.14833 1.52408 3.14833 1.52409 3.14834C1.52411 3.14835 1.52417 3.14839 1.52426 3.14844C1.52445 3.14856 1.52477 3.14875 1.52523 3.14904C1.52616 3.14961 1.52765 3.15052 1.5297 3.15178C1.53379 3.15429 1.54012 3.15817 1.54865 3.16339C1.56572 3.17382 1.59161 3.18962 1.62612 3.21059C1.69514 3.25253 1.79863 3.31514 1.93497 3.39685C2.20764 3.56028 2.61161 3.8001 3.13378 4.10383L2.12818 5.83264C1.59804 5.52427 1.18652 5.27998 0.906782 5.11232C0.766908 5.02848 0.659967 4.9638 0.587602 4.91983C0.55142 4.89784 0.52388 4.88104 0.505189 4.86961C0.495843 4.86389 0.48871 4.85952 0.483814 4.85652C0.481366 4.85501 0.479477 4.85386 0.478151 4.85304C0.477488 4.85263 0.476966 4.85231 0.476584 4.85208C0.476394 4.85196 0.476238 4.85187 0.476118 4.85179C0.476058 4.85175 0.476007 4.85172 0.475964 4.8517C0.475943 4.85168 0.475918 4.85167 0.475908 4.85166C0.475885 4.85165 0.475864 4.85163 1 4ZM6.46391 5.98462C7.45961 6.53187 8.58426 7.13743 9.81781 7.7822L8.89135 9.55468C7.64452 8.90297 6.50757 8.29078 5.50059 7.73733L6.46391 5.98462ZM13.2214 9.51665C14.3137 10.059 15.4612 10.6151 16.6544 11.1759L15.8037 12.986C14.5966 12.4187 13.4362 11.8563 12.3319 11.308L13.2214 9.51665ZM20.1198 12.7568C21.2598 13.2608 22.4293 13.7618 23.6215 14.2534L22.8592 16.1024C21.6504 15.604 20.4654 15.0963 19.3111 14.586L20.1198 12.7568ZM27.1609 15.6558C28.3404 16.1036 29.5344 16.5369 30.7371 16.95L30.0873 18.8415C28.8631 18.421 27.6489 17.9804 26.451 17.5255L27.1609 15.6558ZM34.3496 18.1185C35.5666 18.4868 36.7857 18.8289 38.001 19.1394L37.506 21.0772C36.2602 20.7589 35.0129 20.4088 33.7703 20.0328L34.3496 18.1185ZM41.6874 19.9818C42.9399 20.2323 44.1804 20.4419 45.4025 20.6046L45.1385 22.5871C43.8695 22.4182 42.586 22.2011 41.2952 21.9429L41.6874 19.9818ZM49.1345 20.9523C49.7644 20.9838 50.3866 21 51 21V23C50.3515 23 49.696 22.9829 49.0347 22.9498L49.1345 20.9523ZM51 21C51.6134 21 52.2356 20.9838 52.8655 20.9523L52.9653 22.9498C52.304 22.9829 51.6485 23 51 23V21ZM56.5975 20.6046C57.8196 20.4419 59.0601 20.2323 60.3126 19.9818L60.7048 21.9429C59.414 22.2011 58.1305 22.4182 56.8615 22.5871L56.5975 20.6046ZM63.999 19.1394C65.2143 18.8289 66.4334 18.4868 67.6504 18.1185L68.2297 20.0328C66.9871 20.4088 65.7398 20.7589 64.494 21.0772L63.999 19.1394ZM71.2629 16.95C72.4656 16.5369 73.6596 16.1036 74.8391 15.6558L75.5491 17.5255C74.3511 17.9804 73.1369 18.421 71.9127 18.8415L71.2629 16.95ZM78.3785 14.2534C79.5707 13.7618 80.7402 13.2608 81.8802 12.7568L82.6889 14.586C81.5346 15.0963 80.3497 15.604 79.1408 16.1024L78.3785 14.2534ZM85.3456 11.1759C86.5388 10.6151 87.6863 10.059 88.7786 9.51665L89.6681 11.308C88.5638 11.8563 87.4034 12.4187 86.1963 12.986L85.3456 11.1759ZM92.1822 7.7822C93.4157 7.13743 94.5404 6.53187 95.5361 5.98462L96.4994 7.73733C95.4924 8.29078 94.3555 8.90297 93.1087 9.55468L92.1822 7.7822ZM98.8662 4.10383C99.3884 3.8001 99.7924 3.56027 100.065 3.39685C100.201 3.31514 100.305 3.25253 100.374 3.21059C100.408 3.18962 100.434 3.17382 100.451 3.16339C100.46 3.15817 100.466 3.15429 100.47 3.15178C100.472 3.15052 100.474 3.14961 100.475 3.14904C100.475 3.14875 100.476 3.14856 100.476 3.14844C100.476 3.14839 100.476 3.14835 100.476 3.14834C100.476 3.14833 100.476 3.14833 100.476 3.14834C100.476 3.14834 100.476 3.14835 100.476 3.14835C100.476 3.14836 100.476 3.14837 101 4C101.524 4.85163 101.524 4.85165 101.524 4.85166C101.524 4.85167 101.524 4.85168 101.524 4.8517C101.524 4.85172 101.524 4.85175 101.524 4.85179C101.524 4.85187 101.524 4.85196 101.523 4.85208C101.523 4.85231 101.523 4.85263 101.522 4.85304C101.521 4.85386 101.519 4.85501 101.516 4.85652C101.511 4.85952 101.504 4.86389 101.495 4.86961C101.476 4.88104 101.449 4.89784 101.412 4.91983C101.34 4.9638 101.233 5.02848 101.093 5.11232C100.813 5.27998 100.402 5.52427 99.8718 5.83264L98.8662 4.10383ZM101.232 3.02718C101.769 3.15508 102.101 3.69431 101.973 4.23158L99.8886 12.9869C99.7607 13.5242 99.2215 13.8561 98.6842 13.7282C98.147 13.6003 97.8151 13.061 97.943 12.5238L99.7956 4.74124L92.0131 2.88863C91.4758 2.76073 91.1439 2.22151 91.2718 1.68424C91.3997 1.14697 91.939 0.8151 92.4762 0.942997L101.232 3.02718ZM1 4C1.52414 3.14837 1.52412 3.14836 1.52411 3.14835C1.5241 3.14835 1.52409 3.14834 1.52409 3.14834C1.52408 3.14833 1.52408 3.14833 1.52409 3.14834C1.52411 3.14835 1.52417 3.14839 1.52426 3.14844C1.52445 3.14856 1.52477 3.14875 1.52523 3.14904C1.52616 3.14961 1.52765 3.15052 1.5297 3.15178C1.53379 3.15429 1.54012 3.15817 1.54865 3.16339C1.56572 3.17382 1.59161 3.18962 1.62612 3.21059C1.69514 3.25253 1.79863 3.31514 1.93497 3.39685C2.20764 3.56028 2.61161 3.8001 3.13378 4.10383L2.12818 5.83264C1.59804 5.52427 1.18652 5.27998 0.906782 5.11232C0.766908 5.02848 0.659967 4.9638 0.587602 4.91983C0.55142 4.89784 0.52388 4.88104 0.505189 4.86961C0.495843 4.86389 0.48871 4.85952 0.483814 4.85652C0.481366 4.85501 0.479477 4.85386 0.478151 4.85304C0.477488 4.85263 0.476966 4.85231 0.476584 4.85208C0.476394 4.85196 0.476238 4.85187 0.476118 4.85179C0.476058 4.85175 0.476007 4.85172 0.475964 4.8517C0.475943 4.85168 0.475918 4.85167 0.475908 4.85166C0.475885 4.85165 0.475864 4.85163 1 4ZM6.46391 5.98462C7.45961 6.53187 8.58426 7.13743 9.81781 7.7822L8.89135 9.55468C7.64452 8.90297 6.50757 8.29078 5.50059 7.73733L6.46391 5.98462ZM13.2214 9.51665C14.3137 10.059 15.4612 10.6151 16.6544 11.1759L15.8037 12.986C14.5966 12.4187 13.4362 11.8563 12.3319 11.308L13.2214 9.51665ZM20.1198 12.7568C21.2598 13.2608 22.4293 13.7618 23.6215 14.2534L22.8592 16.1024C21.6504 15.604 20.4654 15.0963 19.3111 14.586L20.1198 12.7568ZM27.1609 15.6558C28.3404 16.1036 29.5344 16.5369 30.7371 16.95L30.0873 18.8415C28.8631 18.421 27.6489 17.9804 26.451 17.5255L27.1609 15.6558ZM34.3496 18.1185C35.5666 18.4868 36.7857 18.8289 38.001 19.1394L37.506 21.0772C36.2602 20.7589 35.0129 20.4088 33.7703 20.0328L34.3496 18.1185ZM41.6874 19.9818C42.9399 20.2323 44.1804 20.4419 45.4025 20.6046L45.1385 22.5871C43.8695 22.4182 42.586 22.2011 41.2952 21.9429L41.6874 19.9818ZM49.1345 20.9523C49.7644 20.9838 50.3866 21 51 21V23C50.3515 23 49.696 22.9829 49.0347 22.9498L49.1345 20.9523ZM51 21C51.6134 21 52.2356 20.9838 52.8655 20.9523L52.9653 22.9498C52.304 22.9829 51.6485 23 51 23V21ZM56.5975 20.6046C57.8196 20.4419 59.0601 20.2323 60.3126 19.9818L60.7048 21.9429C59.414 22.2011 58.1305 22.4182 56.8615 22.5871L56.5975 20.6046ZM63.999 19.1394C65.2143 18.8289 66.4334 18.4868 67.6504 18.1185L68.2297 20.0328C66.9871 20.4088 65.7398 20.7589 64.494 21.0772L63.999 19.1394ZM71.2629 16.95C72.4656 16.5369 73.6596 16.1036 74.8391 15.6558L75.5491 17.5255C74.3511 17.9804 73.1369 18.421 71.9127 18.8415L71.2629 16.95ZM78.3785 14.2534C79.5707 13.7618 80.7402 13.2608 81.8802 12.7568L82.6889 14.586C81.5346 15.0963 80.3497 15.604 79.1408 16.1024L78.3785 14.2534ZM85.3456 11.1759C86.5388 10.6151 87.6863 10.059 88.7786 9.51665L89.6681 11.308C88.5638 11.8563 87.4034 12.4187 86.1963 12.986L85.3456 11.1759ZM92.1822 7.7822C93.4157 7.13743 94.5404 6.53187 95.5361 5.98462L96.4994 7.73733C95.4924 8.29078 94.3555 8.90297 93.1087 9.55468L92.1822 7.7822ZM98.8662 4.10383C99.3884 3.8001 99.7924 3.56027 100.065 3.39685C100.201 3.31514 100.305 3.25253 100.374 3.21059C100.408 3.18962 100.434 3.17382 100.451 3.16339C100.46 3.15817 100.466 3.15429 100.47 3.15178C100.472 3.15052 100.474 3.14961 100.475 3.14904C100.475 3.14875 100.476 3.14856 100.476 3.14844C100.476 3.14839 100.476 3.14835 100.476 3.14834C100.476 3.14833 100.476 3.14833 100.476 3.14834C100.476 3.14834 100.476 3.14835 100.476 3.14835C100.476 3.14836 100.476 3.14837 101 4C101.524 4.85163 101.524 4.85165 101.524 4.85166C101.524 4.85167 101.524 4.85168 101.524 4.8517C101.524 4.85172 101.524 4.85175 101.524 4.85179C101.524 4.85187 101.524 4.85196 101.523 4.85208C101.523 4.85231 101.523 4.85263 101.522 4.85304C101.521 4.85386 101.519 4.85501 101.516 4.85652C101.511 4.85952 101.504 4.86389 101.495 4.86961C101.476 4.88104 101.449 4.89784 101.412 4.91983C101.34 4.9638 101.233 5.02848 101.093 5.11232C100.813 5.27998 100.402 5.52427 99.8718 5.83264L98.8662 4.10383Z" fill="#ADB5BD"/>
</svg>
