<svg width="102" height="23" viewBox="0 0 102 23" fill="none" xmlns="http://www.w3.org/2000/svg">
<path d="M101.232 19.9728C101.769 19.8449 102.101 19.3057 101.973 18.7684L99.8886 10.0131C99.7607 9.4758 99.2215 9.14394 98.6842 9.27183C98.147 9.39973 97.8151 9.93895 97.943 10.4762L99.7956 18.2588L92.0131 20.1114C91.4758 20.2393 91.1439 20.7785 91.2718 21.3158C91.3997 21.853 91.939 22.1849 92.4762 22.057L101.232 19.9728ZM1 19C1.52414 19.8516 1.52412 19.8516 1.52411 19.8517C1.5241 19.8517 1.52409 19.8517 1.52409 19.8517C1.52408 19.8517 1.52408 19.8517 1.52409 19.8517C1.52411 19.8516 1.52417 19.8516 1.52426 19.8516C1.52445 19.8514 1.52477 19.8512 1.52523 19.851C1.52616 19.8504 1.52765 19.8495 1.5297 19.8482C1.53379 19.8457 1.54012 19.8418 1.54865 19.8366C1.56572 19.8262 1.59161 19.8104 1.62612 19.7894C1.69514 19.7475 1.79863 19.6849 1.93497 19.6032C2.20764 19.4397 2.61161 19.1999 3.13378 18.8962L2.12818 17.1674C1.59804 17.4757 1.18652 17.72 0.906782 17.8877C0.766908 17.9715 0.659967 18.0362 0.587602 18.0802C0.55142 18.1022 0.52388 18.119 0.505189 18.1304C0.495843 18.1361 0.48871 18.1405 0.483814 18.1435C0.481366 18.145 0.479477 18.1461 0.478151 18.147C0.477488 18.1474 0.476966 18.1477 0.476584 18.1479C0.476394 18.148 0.476238 18.1481 0.476118 18.1482C0.476058 18.1482 0.476007 18.1483 0.475964 18.1483C0.475943 18.1483 0.475918 18.1483 0.475908 18.1483C0.475885 18.1484 0.475864 18.1484 1 19ZM6.46391 17.0154C7.45961 16.4681 8.58426 15.8626 9.81781 15.2178L8.89135 13.4453C7.64452 14.097 6.50757 14.7092 5.50059 15.2627L6.46391 17.0154ZM13.2214 13.4834C14.3137 12.941 15.4612 12.3849 16.6544 11.8241L15.8037 10.014C14.5966 10.5813 13.4362 11.1437 12.3319 11.692L13.2214 13.4834ZM20.1198 10.2432C21.2598 9.73919 22.4293 9.23818 23.6215 8.74662L22.8592 6.89761C21.6504 7.39601 20.4654 7.90367 19.3111 8.41403L20.1198 10.2432ZM27.1609 7.34422C28.3404 6.89637 29.5344 6.46308 30.7371 6.04998L30.0873 4.15846C28.8631 4.57898 27.6489 5.0196 26.451 5.47447L27.1609 7.34422ZM34.3496 4.88149C35.5666 4.51323 36.7857 4.17107 38.001 3.8606L37.506 1.92284C36.2602 2.2411 35.0129 2.59121 33.7703 2.96721L34.3496 4.88149ZM41.6874 3.01824C42.9399 2.76773 44.1804 2.55807 45.4025 2.39537L45.1385 0.412861C43.8695 0.58182 42.586 0.798899 41.2952 1.05708L41.6874 3.01824ZM49.1345 2.04766C49.7644 2.01618 50.3866 2 51 2V0C50.3515 0 49.696 0.0171014 49.0347 0.0501528L49.1345 2.04766ZM51 2C51.6134 2 52.2356 2.01618 52.8655 2.04766L52.9653 0.050153C52.304 0.0171015 51.6485 0 51 0V2ZM56.5975 2.39537C57.8196 2.55807 59.0601 2.76773 60.3126 3.01824L60.7048 1.05708C59.414 0.7989 58.1305 0.581821 56.8615 0.412862L56.5975 2.39537ZM63.999 3.86061C65.2143 4.17107 66.4334 4.51323 67.6504 4.88149L68.2297 2.96721C66.9871 2.59121 65.7398 2.2411 64.494 1.92284L63.999 3.86061ZM71.2629 6.04998C72.4656 6.46308 73.6596 6.89637 74.8391 7.34422L75.5491 5.47447C74.3511 5.0196 73.1369 4.57899 71.9127 4.15846L71.2629 6.04998ZM78.3785 8.74662C79.5707 9.23818 80.7402 9.73919 81.8802 10.2432L82.6889 8.41403C81.5346 7.90367 80.3497 7.39601 79.1408 6.89761L78.3785 8.74662ZM85.3456 11.8241C86.5388 12.3849 87.6863 12.941 88.7786 13.4834L89.6681 11.692C88.5638 11.1437 87.4034 10.5813 86.1963 10.014L85.3456 11.8241ZM92.1822 15.2178C93.4157 15.8626 94.5404 16.4681 95.5361 17.0154L96.4994 15.2627C95.4924 14.7092 94.3555 14.097 93.1087 13.4453L92.1822 15.2178ZM98.8662 18.8962C99.3884 19.1999 99.7924 19.4397 100.065 19.6032C100.201 19.6849 100.305 19.7475 100.374 19.7894C100.408 19.8104 100.434 19.8262 100.451 19.8366C100.46 19.8418 100.466 19.8457 100.47 19.8482C100.472 19.8495 100.474 19.8504 100.475 19.851C100.475 19.8512 100.476 19.8514 100.476 19.8516C100.476 19.8516 100.476 19.8516 100.476 19.8517C100.476 19.8517 100.476 19.8517 100.476 19.8517C100.476 19.8517 100.476 19.8517 100.476 19.8517C100.476 19.8516 100.476 19.8516 101 19C101.524 18.1484 101.524 18.1484 101.524 18.1483C101.524 18.1483 101.524 18.1483 101.524 18.1483C101.524 18.1483 101.524 18.1482 101.524 18.1482C101.524 18.1481 101.524 18.148 101.523 18.1479C101.523 18.1477 101.523 18.1474 101.522 18.147C101.521 18.1461 101.519 18.145 101.516 18.1435C101.511 18.1405 101.504 18.1361 101.495 18.1304C101.476 18.119 101.449 18.1022 101.412 18.0802C101.34 18.0362 101.233 17.9715 101.093 17.8877C100.813 17.72 100.402 17.4757 99.8718 17.1674L98.8662 18.8962ZM101.232 19.9728C101.769 19.8449 102.101 19.3057 101.973 18.7684L99.8886 10.0131C99.7607 9.4758 99.2215 9.14394 98.6842 9.27183C98.147 9.39973 97.8151 9.93895 97.943 10.4762L99.7956 18.2588L92.0131 20.1114C91.4758 20.2393 91.1439 20.7785 91.2718 21.3158C91.3997 21.853 91.939 22.1849 92.4762 22.057L101.232 19.9728ZM1 19C1.52414 19.8516 1.52412 19.8516 1.52411 19.8517C1.5241 19.8517 1.52409 19.8517 1.52409 19.8517C1.52408 19.8517 1.52408 19.8517 1.52409 19.8517C1.52411 19.8516 1.52417 19.8516 1.52426 19.8516C1.52445 19.8514 1.52477 19.8512 1.52523 19.851C1.52616 19.8504 1.52765 19.8495 1.5297 19.8482C1.53379 19.8457 1.54012 19.8418 1.54865 19.8366C1.56572 19.8262 1.59161 19.8104 1.62612 19.7894C1.69514 19.7475 1.79863 19.6849 1.93497 19.6032C2.20764 19.4397 2.61161 19.1999 3.13378 18.8962L2.12818 17.1674C1.59804 17.4757 1.18652 17.72 0.906782 17.8877C0.766908 17.9715 0.659967 18.0362 0.587602 18.0802C0.55142 18.1022 0.52388 18.119 0.505189 18.1304C0.495843 18.1361 0.48871 18.1405 0.483814 18.1435C0.481366 18.145 0.479477 18.1461 0.478151 18.147C0.477488 18.1474 0.476966 18.1477 0.476584 18.1479C0.476394 18.148 0.476238 18.1481 0.476118 18.1482C0.476058 18.1482 0.476007 18.1483 0.475964 18.1483C0.475943 18.1483 0.475918 18.1483 0.475908 18.1483C0.475885 18.1484 0.475864 18.1484 1 19ZM6.46391 17.0154C7.45961 16.4681 8.58426 15.8626 9.81781 15.2178L8.89135 13.4453C7.64452 14.097 6.50757 14.7092 5.50059 15.2627L6.46391 17.0154ZM13.2214 13.4834C14.3137 12.941 15.4612 12.3849 16.6544 11.8241L15.8037 10.014C14.5966 10.5813 13.4362 11.1437 12.3319 11.692L13.2214 13.4834ZM20.1198 10.2432C21.2598 9.73919 22.4293 9.23818 23.6215 8.74662L22.8592 6.89761C21.6504 7.39601 20.4654 7.90367 19.3111 8.41403L20.1198 10.2432ZM27.1609 7.34422C28.3404 6.89637 29.5344 6.46308 30.7371 6.04998L30.0873 4.15846C28.8631 4.57898 27.6489 5.0196 26.451 5.47447L27.1609 7.34422ZM34.3496 4.88149C35.5666 4.51323 36.7857 4.17107 38.001 3.8606L37.506 1.92284C36.2602 2.2411 35.0129 2.59121 33.7703 2.96721L34.3496 4.88149ZM41.6874 3.01824C42.9399 2.76773 44.1804 2.55807 45.4025 2.39537L45.1385 0.412861C43.8695 0.58182 42.586 0.798899 41.2952 1.05708L41.6874 3.01824ZM49.1345 2.04766C49.7644 2.01618 50.3866 2 51 2V0C50.3515 0 49.696 0.0171014 49.0347 0.0501528L49.1345 2.04766ZM51 2C51.6134 2 52.2356 2.01618 52.8655 2.04766L52.9653 0.050153C52.304 0.0171015 51.6485 0 51 0V2ZM56.5975 2.39537C57.8196 2.55807 59.0601 2.76773 60.3126 3.01824L60.7048 1.05708C59.414 0.7989 58.1305 0.581821 56.8615 0.412862L56.5975 2.39537ZM63.999 3.86061C65.2143 4.17107 66.4334 4.51323 67.6504 4.88149L68.2297 2.96721C66.9871 2.59121 65.7398 2.2411 64.494 1.92284L63.999 3.86061ZM71.2629 6.04998C72.4656 6.46308 73.6596 6.89637 74.8391 7.34422L75.5491 5.47447C74.3511 5.0196 73.1369 4.57899 71.9127 4.15846L71.2629 6.04998ZM78.3785 8.74662C79.5707 9.23818 80.7402 9.73919 81.8802 10.2432L82.6889 8.41403C81.5346 7.90367 80.3497 7.39601 79.1408 6.89761L78.3785 8.74662ZM85.3456 11.8241C86.5388 12.3849 87.6863 12.941 88.7786 13.4834L89.6681 11.692C88.5638 11.1437 87.4034 10.5813 86.1963 10.014L85.3456 11.8241ZM92.1822 15.2178C93.4157 15.8626 94.5404 16.4681 95.5361 17.0154L96.4994 15.2627C95.4924 14.7092 94.3555 14.097 93.1087 13.4453L92.1822 15.2178ZM98.8662 18.8962C99.3884 19.1999 99.7924 19.4397 100.065 19.6032C100.201 19.6849 100.305 19.7475 100.374 19.7894C100.408 19.8104 100.434 19.8262 100.451 19.8366C100.46 19.8418 100.466 19.8457 100.47 19.8482C100.472 19.8495 100.474 19.8504 100.475 19.851C100.475 19.8512 100.476 19.8514 100.476 19.8516C100.476 19.8516 100.476 19.8516 100.476 19.8517C100.476 19.8517 100.476 19.8517 100.476 19.8517C100.476 19.8517 100.476 19.8517 100.476 19.8517C100.476 19.8516 100.476 19.8516 101 19C101.524 18.1484 101.524 18.1484 101.524 18.1483C101.524 18.1483 101.524 18.1483 101.524 18.1483C101.524 18.1483 101.524 18.1482 101.524 18.1482C101.524 18.1481 101.524 18.148 101.523 18.1479C101.523 18.1477 101.523 18.1474 101.522 18.147C101.521 18.1461 101.519 18.145 101.516 18.1435C101.511 18.1405 101.504 18.1361 101.495 18.1304C101.476 18.119 101.449 18.1022 101.412 18.0802C101.34 18.0362 101.233 17.9715 101.093 17.8877C100.813 17.72 100.402 17.4757 99.8718 17.1674L98.8662 18.8962Z" fill="#ADB5BD"/>
</svg>
