<svg width="20" height="20" viewBox="0 0 20 20" fill="none" xmlns="http://www.w3.org/2000/svg">
<path d="M12.7387 13.7613C12.8074 13.835 12.8902 13.8941 12.9822 13.9351C13.0742 13.9761 13.1735 13.9981 13.2742 13.9999C13.3749 14.0017 13.4749 13.9831 13.5683 13.9454C13.6617 13.9077 13.7465 13.8515 13.8177 13.7803C13.889 13.7091 13.9451 13.6243 13.9828 13.5309C14.0206 13.4375 14.0391 13.3375 14.0373 13.2368C14.0355 13.1361 14.0135 13.0368 13.9725 12.9448C13.9315 12.8528 13.8724 12.77 13.7987 12.7013L11.0787 9.98129L13.7987 7.26129C13.9312 7.11912 14.0033 6.93107 13.9999 6.73677C13.9965 6.54247 13.9177 6.35708 13.7803 6.21967C13.6429 6.08226 13.4575 6.00355 13.2632 6.00012C13.0689 5.99669 12.8809 6.06881 12.7387 6.20129L10.0187 8.92129L7.29871 6.20129C7.15653 6.06881 6.96849 5.99669 6.77419 6.00012C6.57988 6.00355 6.3945 6.08226 6.25709 6.21967C6.11967 6.35708 6.04096 6.54247 6.03753 6.73677C6.0341 6.93107 6.10623 7.11912 6.23871 7.26129L8.95871 9.98129L6.23871 12.7013C6.16502 12.77 6.10592 12.8528 6.06493 12.9448C6.02394 13.0368 6.00189 13.1361 6.00012 13.2368C5.99834 13.3375 6.01686 13.4375 6.05459 13.5309C6.09231 13.6243 6.14845 13.7091 6.21967 13.7803C6.29089 13.8515 6.37572 13.9077 6.46911 13.9454C6.5625 13.9831 6.66253 14.0017 6.76323 13.9999C6.86393 13.9981 6.96325 13.9761 7.05525 13.9351C7.14725 13.8941 7.23005 13.835 7.29871 13.7613L10.0187 11.0413L12.7387 13.7613Z" fill="#6C757D"/>
</svg>
