<svg width="20" height="20" viewBox="0 0 20 20" fill="none" xmlns="http://www.w3.org/2000/svg">
<path d="M13.1911 13.0781C12.2593 14.0099 12.3758 15.8901 12.3758 15.8901H7.65034C7.65034 15.8901 7.75018 14.0099 6.83504 13.0781C5.82006 12.1796 5.17114 10.8818 5.17114 9.43418C5.17114 6.77195 7.3342 4.60889 9.99643 4.60889C12.6587 4.60889 14.8217 6.77195 14.8217 9.43418C14.8217 10.8818 14.1894 12.1796 13.1911 13.0781Z" fill="#FFD517"/>
<path d="M12.5093 17.3711C12.5093 17.6207 12.3096 17.8204 12.06 17.8204H7.95023C7.70064 17.8204 7.50098 17.6207 7.50098 17.3711C7.50098 17.1215 7.70064 16.9219 7.95023 16.9219H12.0434C12.293 16.9219 12.5093 17.1215 12.5093 17.3711Z" fill="#E5E5E5"/>
<path d="M11.8932 19.2349C11.8932 19.4845 11.6936 19.6841 11.444 19.6841H8.56546C8.31588 19.6841 8.11621 19.4845 8.11621 19.2349C8.11621 18.9853 8.31588 18.7856 8.56546 18.7856H11.444C11.6936 18.7856 11.8932 18.9853 11.8932 19.2349Z" fill="#E5E5E5"/>
<path d="M13.4412 13.2447C14.5227 12.263 15.1383 10.882 15.1383 9.4344C15.1383 6.60578 12.8255 4.29297 9.9969 4.29297C7.16828 4.29297 4.85547 6.60578 4.85547 9.4344C4.85547 10.9153 5.50439 12.3296 6.60256 13.2946C7.41787 14.1099 7.33467 15.8404 7.33467 15.857C7.33467 15.9402 7.36795 16.0234 7.41786 16.09C7.48442 16.1565 7.56762 16.1898 7.65081 16.1898H12.3596C12.4428 16.1898 12.526 16.1565 12.5926 16.09C12.6591 16.0234 12.6758 15.9402 12.6758 15.857C12.6758 15.8404 12.5926 14.1099 13.4079 13.2946C13.4245 13.278 13.4412 13.2614 13.4412 13.2447ZM12.9753 12.8287C12.942 12.8454 12.9254 12.8787 12.9087 12.9119C12.1766 13.694 12.0601 14.9752 12.0435 15.5742H7.96695C7.95031 14.9585 7.8172 13.6274 7.03517 12.8454C6.05347 11.9802 5.48775 10.7489 5.48775 9.45104C5.48775 6.9552 7.5177 4.94189 9.9969 4.94189C12.4927 4.94189 14.5061 6.97184 14.5061 9.45104C14.5061 10.7322 13.957 11.9802 12.9753 12.8287Z" fill="#343A40"/>
<path d="M9.9968 5.62402C9.83041 5.62402 9.68066 5.75714 9.68066 5.94016C9.68066 6.10655 9.81378 6.2563 9.9968 6.2563C11.8604 6.2563 13.3745 7.77045 13.3745 9.63401C13.3745 9.8004 13.5076 9.95015 13.6906 9.95015C13.857 9.95015 14.0068 9.81704 14.0068 9.63401C14.0068 7.42103 12.2098 5.62402 9.9968 5.62402Z" fill="#343A40"/>
<path d="M12.8254 17.3709C12.8254 16.9382 12.476 16.6055 12.06 16.6055H7.95021C7.51759 16.6055 7.18481 16.9549 7.18481 17.3709C7.18481 17.8035 7.53423 18.1363 7.95021 18.1363H12.0434C12.476 18.1363 12.8254 17.8035 12.8254 17.3709ZM12.0434 17.504H7.95021C7.86701 17.504 7.81709 17.4374 7.81709 17.3709C7.81709 17.2877 7.88365 17.2377 7.95021 17.2377H12.0434C12.1266 17.2377 12.1765 17.3043 12.1765 17.3709C12.1931 17.4541 12.1266 17.504 12.0434 17.504Z" fill="#343A40"/>
<path d="M11.4447 18.4692H8.56617C8.13356 18.4692 7.80078 18.8187 7.80078 19.2346C7.80078 19.6672 8.1502 20 8.56617 20H11.4447C11.8773 20 12.2101 19.6506 12.2101 19.2346C12.2101 18.8187 11.8607 18.4692 11.4447 18.4692ZM11.4447 19.3677H8.56617C8.48298 19.3677 8.43306 19.3012 8.43306 19.2346C8.43306 19.1514 8.49962 19.1015 8.56617 19.1015H11.4447C11.5279 19.1015 11.5778 19.1681 11.5778 19.2346C11.5778 19.3178 11.5279 19.3677 11.4447 19.3677Z" fill="#343A40"/>
<path d="M10.3129 2.44592V0.31614C10.3129 0.14975 10.1798 0 9.9968 0C9.83041 0 9.68066 0.133111 9.68066 0.31614V2.46256C9.68066 2.62895 9.81378 2.7787 9.9968 2.7787C10.1798 2.76206 10.3129 2.62895 10.3129 2.44592Z" fill="#343A40"/>
<path d="M15.238 1.58054C15.0882 1.4807 14.9052 1.53062 14.8054 1.66373L13.624 3.4441C13.5242 3.59385 13.5741 3.77688 13.7072 3.87671C13.7571 3.90999 13.8237 3.92663 13.8736 3.92663C13.9734 3.92663 14.0732 3.87671 14.1398 3.79352L15.3212 2.01315C15.421 1.88004 15.3711 1.68037 15.238 1.58054Z" fill="#343A40"/>
<path d="M6.23647 3.86046C6.28638 3.86046 6.35294 3.84382 6.40286 3.81054C6.55261 3.71071 6.58588 3.52768 6.50269 3.37793L5.3546 1.58093C5.25477 1.43118 5.07174 1.3979 4.92199 1.48109C4.77224 1.58093 4.73896 1.76395 4.82216 1.9137L5.97024 3.71071C6.0368 3.81054 6.13663 3.86046 6.23647 3.86046Z" fill="#343A40"/>
<path d="M1.82707 5.35769L3.70727 6.37266C3.75719 6.40594 3.80711 6.40594 3.85702 6.40594C3.9735 6.40594 4.07333 6.33938 4.13989 6.23955C4.22308 6.0898 4.17316 5.89013 4.00678 5.80694L2.12658 4.79196C1.97683 4.70877 1.77716 4.75868 1.69396 4.92507C1.62741 5.09146 1.67732 5.27449 1.82707 5.35769Z" fill="#343A40"/>
<path d="M16.1365 6.42268C16.1864 6.42268 16.2363 6.40604 16.2862 6.3894L18.1664 5.37443C18.3162 5.29123 18.3827 5.1082 18.2995 4.94181C18.2164 4.79206 18.0333 4.72551 17.8669 4.8087L15.9867 5.82368C15.837 5.90687 15.7704 6.0899 15.8536 6.25629C15.9035 6.35612 16.02 6.42268 16.1365 6.42268Z" fill="#343A40"/>
</svg>
