<svg width="232" height="67" viewBox="0 0 232 67" fill="none" xmlns="http://www.w3.org/2000/svg">
<g filter="url(#filter0_d_50_5463)">
<g clip-path="url(#clip0_50_5463)">
<path d="M35.9965 25.8511H38.1875V22.0351C37.8095 21.9831 36.5095 21.8661 34.9955 21.8661C31.8365 21.8661 29.6725 23.8531 29.6725 27.5051V30.8661H26.1865V35.1321H29.6725V45.8661H33.9465V35.1331H37.2915L37.8225 30.8671H33.9455V27.9281C33.9465 26.6951 34.2785 25.8511 35.9965 25.8511Z" fill="#303030"/>
</g>
</g>
<g filter="url(#filter1_d_50_5463)">
<g clip-path="url(#clip1_50_5463)">
<path d="M100 26.4246C99.1075 26.8161 98.1565 27.0756 97.165 27.2016C98.185 26.5926 98.9635 25.6356 99.3295 24.4821C98.3785 25.0491 97.3285 25.4496 96.2095 25.6731C95.3065 24.7116 94.0195 24.1161 92.6155 24.1161C89.8915 24.1161 87.6985 26.3271 87.6985 29.0376C87.6985 29.4276 87.7315 29.8026 87.8125 30.1596C83.722 29.9601 80.1025 27.9996 77.671 25.0131C77.2465 25.7496 76.9975 26.5926 76.9975 27.5001C76.9975 29.2041 77.875 30.7146 79.183 31.5891C78.3925 31.5741 77.617 31.3446 76.96 30.9831C76.96 30.9981 76.96 31.0176 76.96 31.0371C76.96 33.4281 78.6655 35.4141 80.902 35.8716C80.5015 35.9811 80.065 36.0336 79.612 36.0336C79.297 36.0336 78.979 36.0156 78.6805 35.9496C79.318 37.8981 81.127 39.3306 83.278 39.3771C81.604 40.6866 79.4785 41.4756 77.1775 41.4756C76.774 41.4756 76.387 41.4576 76 41.4081C78.1795 42.8136 80.7625 43.6161 83.548 43.6161C92.602 43.6161 97.552 36.1161 97.552 29.6151C97.552 29.3976 97.5445 29.1876 97.534 28.9791C98.5105 28.2861 99.331 27.4206 100 26.4246Z" fill="#303030"/>
</g>
</g>
<g filter="url(#filter2_d_50_5463)">
<path d="M155.673 27.7737C155.392 26.7294 154.568 25.9063 153.524 25.6251C151.617 25.1032 143.987 25.1032 143.987 25.1032C143.987 25.1032 136.357 25.1032 134.45 25.6053C133.426 25.8862 132.583 26.7296 132.302 27.7737C131.8 29.681 131.8 33.6364 131.8 33.6364C131.8 33.6364 131.8 37.6118 132.302 39.4991C132.583 40.5432 133.406 41.3663 134.45 41.6475C136.378 42.1696 143.987 42.1696 143.987 42.1696C143.987 42.1696 151.617 42.1696 153.524 41.6675C154.568 41.3864 155.392 40.5633 155.673 39.5192C156.175 37.6118 156.175 33.6565 156.175 33.6565C156.175 33.6565 156.195 29.681 155.673 27.7737ZM141.558 37.2906V29.9822L147.902 33.6364L141.558 37.2906Z" fill="#303030"/>
</g>
<g filter="url(#filter3_d_50_5463)">
<g clip-path="url(#clip2_50_5463)">
<path d="M211.994 45.8663V45.8653H212V37.0633C212 32.7573 211.073 29.4403 206.039 29.4403C203.619 29.4403 201.995 30.7683 201.332 32.0273H201.262V29.8423H196.489V45.8653H201.459V37.9313C201.459 35.8423 201.855 33.8223 204.442 33.8223C206.991 33.8223 207.029 36.2063 207.029 38.0653V45.8663H211.994Z" fill="#303030"/>
<path d="M188.396 29.8431H193.372V45.8661H188.396V29.8431Z" fill="#303030"/>
<path d="M190.882 21.8661C189.291 21.8661 188 23.1571 188 24.7481C188 26.3391 189.291 27.6571 190.882 27.6571C192.473 27.6571 193.764 26.3391 193.764 24.7481C193.763 23.1571 192.472 21.8661 190.882 21.8661V21.8661Z" fill="#303030"/>
</g>
</g>
<defs>
<filter id="filter0_d_50_5463" x="-12" y="-10.1339" width="88" height="88" filterUnits="userSpaceOnUse" color-interpolation-filters="sRGB">
<feFlood flood-opacity="0" result="BackgroundImageFix"/>
<feColorMatrix in="SourceAlpha" type="matrix" values="0 0 0 0 0 0 0 0 0 0 0 0 0 0 0 0 0 0 127 0" result="hardAlpha"/>
<feOffset/>
<feGaussianBlur stdDeviation="10"/>
<feComposite in2="hardAlpha" operator="out"/>
<feColorMatrix type="matrix" values="0 0 0 0 0 0 0 0 0 0 0 0 0 0 0 0 0 0 0.08 0"/>
<feBlend mode="normal" in2="BackgroundImageFix" result="effect1_dropShadow_50_5463"/>
<feBlend mode="normal" in="SourceGraphic" in2="effect1_dropShadow_50_5463" result="shape"/>
</filter>
<filter id="filter1_d_50_5463" x="44" y="-10.1339" width="88" height="88" filterUnits="userSpaceOnUse" color-interpolation-filters="sRGB">
<feFlood flood-opacity="0" result="BackgroundImageFix"/>
<feColorMatrix in="SourceAlpha" type="matrix" values="0 0 0 0 0 0 0 0 0 0 0 0 0 0 0 0 0 0 127 0" result="hardAlpha"/>
<feOffset/>
<feGaussianBlur stdDeviation="10"/>
<feComposite in2="hardAlpha" operator="out"/>
<feColorMatrix type="matrix" values="0 0 0 0 0 0 0 0 0 0 0 0 0 0 0 0 0 0 0.08 0"/>
<feBlend mode="normal" in2="BackgroundImageFix" result="effect1_dropShadow_50_5463"/>
<feBlend mode="normal" in="SourceGraphic" in2="effect1_dropShadow_50_5463" result="shape"/>
</filter>
<filter id="filter2_d_50_5463" x="100" y="-10.1339" width="88" height="88" filterUnits="userSpaceOnUse" color-interpolation-filters="sRGB">
<feFlood flood-opacity="0" result="BackgroundImageFix"/>
<feColorMatrix in="SourceAlpha" type="matrix" values="0 0 0 0 0 0 0 0 0 0 0 0 0 0 0 0 0 0 127 0" result="hardAlpha"/>
<feOffset/>
<feGaussianBlur stdDeviation="10"/>
<feComposite in2="hardAlpha" operator="out"/>
<feColorMatrix type="matrix" values="0 0 0 0 0 0 0 0 0 0 0 0 0 0 0 0 0 0 0.08 0"/>
<feBlend mode="normal" in2="BackgroundImageFix" result="effect1_dropShadow_50_5463"/>
<feBlend mode="normal" in="SourceGraphic" in2="effect1_dropShadow_50_5463" result="shape"/>
</filter>
<filter id="filter3_d_50_5463" x="156" y="-10.1339" width="88" height="88" filterUnits="userSpaceOnUse" color-interpolation-filters="sRGB">
<feFlood flood-opacity="0" result="BackgroundImageFix"/>
<feColorMatrix in="SourceAlpha" type="matrix" values="0 0 0 0 0 0 0 0 0 0 0 0 0 0 0 0 0 0 127 0" result="hardAlpha"/>
<feOffset/>
<feGaussianBlur stdDeviation="10"/>
<feComposite in2="hardAlpha" operator="out"/>
<feColorMatrix type="matrix" values="0 0 0 0 0 0 0 0 0 0 0 0 0 0 0 0 0 0 0.08 0"/>
<feBlend mode="normal" in2="BackgroundImageFix" result="effect1_dropShadow_50_5463"/>
<feBlend mode="normal" in="SourceGraphic" in2="effect1_dropShadow_50_5463" result="shape"/>
</filter>
<clipPath id="clip0_50_5463">
<rect width="24" height="24" fill="white" transform="translate(20 21.8661)"/>
</clipPath>
<clipPath id="clip1_50_5463">
<rect width="24" height="24" fill="white" transform="translate(76 21.8661)"/>
</clipPath>
<clipPath id="clip2_50_5463">
<rect width="24" height="24" fill="white" transform="translate(188 21.8661)"/>
</clipPath>
</defs>
</svg>
