<svg width="126" height="99" viewBox="0 0 126 99" fill="none" xmlns="http://www.w3.org/2000/svg">
<path d="M125.358 53.5863C125.358 78.435 97.4394 98.5789 63 98.5789C28.5605 98.5789 0.641846 78.435 0.641846 53.5863C0.641846 28.7376 28.5605 8.59375 63 8.59375C97.4394 8.59375 125.358 28.7376 125.358 53.5863Z" fill="#FFBFBF" fill-opacity="0.1"/>
<path fill-rule="evenodd" clip-rule="evenodd" d="M102.431 2.66904C101.283 2.6683 100.301 3.41785 99.9267 4.44625L119.162 4.45861C118.789 3.42973 117.807 2.67892 116.658 2.67818L102.431 2.66904ZM98.8711 6.22613C97.4083 6.22519 96.1969 7.43331 96.1959 8.89612L96.1868 23.1232C96.1859 24.586 97.3957 25.7974 98.8585 25.7983L120.203 25.8121C121.665 25.813 122.868 24.6031 122.869 23.1403L122.878 8.91326C122.879 7.45045 121.678 6.24078 120.215 6.23984L98.8711 6.22613ZM109.524 9.77845C110.029 9.7693 110.439 10.1798 110.429 10.6841L110.423 19.2082L112.468 17.1718C112.547 17.0788 112.646 17.0032 112.756 16.9499C112.866 16.8966 112.986 16.8667 113.109 16.8621C113.231 16.8574 113.354 16.8782 113.468 16.9229C113.582 16.9677 113.685 17.0356 113.772 17.1224C113.859 17.2091 113.926 17.3128 113.971 17.427C114.016 17.5411 114.036 17.6633 114.032 17.7858C114.027 17.9083 113.997 18.0284 113.943 18.1388C113.89 18.2491 113.814 18.3472 113.721 18.4268L110.159 21.9839C109.993 22.1495 109.767 22.2423 109.532 22.2422C109.297 22.242 109.072 22.1489 108.905 21.9831L105.35 18.4215C105.228 18.3033 105.143 18.1528 105.104 17.9878C105.065 17.8228 105.074 17.65 105.13 17.49C105.186 17.3299 105.286 17.1892 105.42 17.0844C105.553 16.9795 105.714 16.915 105.882 16.8983C106.015 16.8862 106.149 16.9041 106.274 16.9508C106.399 16.9975 106.512 17.0718 106.605 17.1681L108.645 19.2122L108.65 10.6829C108.641 10.1915 109.033 9.78822 109.524 9.77845Z" fill="#FFB7B7"/>
<g clip-path="url(#clip0_50_5077)">
<path d="M76.2026 21.5453C75.7558 21.5974 75.3262 21.3557 75.1388 20.9472L74.7492 20.0956C74.5603 19.6888 74.131 19.4491 73.685 19.5019C73.2395 19.5546 72.8779 19.8881 72.7892 20.328L72.6051 21.2431C72.5162 21.6852 72.1522 22.0197 71.7042 22.07L70.7777 22.1768C70.3278 22.2267 69.962 22.562 69.8737 23.0055C69.7849 23.4492 69.993 23.8992 70.389 24.1182L71.2024 24.5783C71.5072 24.7516 71.7028 25.0679 71.7216 25.4183L76.5983 21.5005L76.2026 21.5453Z" fill="#FFB7B7"/>
<path d="M77.1286 21.4373L76.5944 21.4988L71.7169 25.4077C71.7271 25.4969 71.7252 25.5871 71.7118 25.6759L71.5273 26.5901C71.4377 27.0319 71.6434 27.4812 72.0365 27.7024C72.4299 27.923 72.9207 27.865 73.2515 27.5584L73.9374 26.9268C74.2676 26.6215 74.7566 26.5631 75.1489 26.7824L75.9625 27.2419C76.3545 27.463 76.8438 27.4067 77.1753 27.102C77.5064 26.7974 77.6041 26.3142 77.417 25.905L77.0276 25.0539C76.84 24.6449 76.9372 24.1619 77.2682 23.8573L77.9546 23.2255C78.2796 22.9195 78.3732 22.4395 78.1859 22.0342C77.9985 21.6284 77.5727 21.388 77.1286 21.4373Z" fill="#FFB7B7"/>
<path d="M45.387 35.1678C45.5259 34.7375 45.3699 34.2664 45.0013 34.0038C44.6328 33.7412 44.1367 33.7473 43.7748 34.0193L40.087 36.7632C39.9729 36.8444 39.8432 36.9012 39.706 36.9293L38.2845 49.4084L38.6332 50.4404C38.7765 50.8669 39.1783 51.1529 39.6285 51.148C40.0783 51.1434 40.4747 50.8495 40.6088 50.4195L41.9822 46.0339C42.1182 45.6059 42.5151 45.3134 42.9643 45.31L47.5599 45.2607C48.011 45.2577 48.4084 44.964 48.5437 44.534C48.6793 44.1039 48.5215 43.6352 48.1532 43.3746L44.3986 40.7116C44.032 40.451 43.8742 39.9838 44.0085 39.5543L45.387 35.1678Z" fill="#FFB7B7"/>
<path d="M38.8661 36.7795L35.12 34.1175C34.7536 33.8617 34.2646 33.8693 33.9064 34.1356C33.5477 34.402 33.3994 34.8676 33.5385 35.292L35.0006 39.6505C35.1445 40.0774 34.9971 40.5481 34.6358 40.8161L30.9457 43.5543C30.5839 43.8225 30.436 44.2935 30.5798 44.7198C30.7233 45.1468 31.1255 45.4326 31.5756 45.4273L36.1708 45.3781C36.6205 45.3734 37.0228 45.6592 37.1661 46.0858L38.2843 49.4094L39.702 36.9318C39.4146 37.0036 39.11 36.948 38.8661 36.7795Z" fill="#FFB7B7"/>
<path d="M69.7991 43.8844L58.3251 35.7326C57.5916 35.2109 56.6057 35.2211 55.8827 35.7578C55.16 36.2949 54.8654 37.2357 55.1531 38.0889L59.6438 51.4286C59.9306 52.281 59.6361 53.2218 58.9141 53.7581L47.615 62.1508C46.8914 62.6872 46.5955 63.6285 46.8827 64.4819C47.1699 65.3353 47.9744 65.9069 48.8748 65.8967L62.9492 65.7476C63.8493 65.7381 64.6535 66.3087 64.9407 67.1621L68.9373 79.0381L70.9188 44.2531C70.5176 44.2429 70.1281 44.1146 69.7991 43.8844Z" fill="#FFB7B7"/>
<path d="M86.7613 37.7549C87.0291 36.8966 86.7147 35.9635 85.982 35.4426C85.2493 34.9216 84.2646 34.9308 83.5422 35.4662L72.241 43.8591C71.8586 44.1387 71.3917 44.2778 70.9188 44.2529L68.9373 79.0379L69.4283 80.5022C69.715 81.3558 70.5189 81.9271 71.419 81.9175C72.3193 81.9074 73.1109 81.3195 73.3795 80.4604L77.5872 67.0296C77.8563 66.1708 78.6479 65.583 79.5473 65.5732L93.6226 65.4249C94.5228 65.4169 95.3157 64.8297 95.5853 63.9707C95.855 63.1117 95.5409 62.1768 94.8072 61.6546L83.3316 53.5013C82.5982 52.9801 82.2837 52.0453 82.5524 51.1867L86.7613 37.7549Z" fill="#FFB7B7"/>
</g>
<defs>
<clipPath id="clip0_50_5077">
<rect width="58.4114" height="58.4114" fill="white" transform="translate(25.8345 37.293) rotate(-21.6042)"/>
</clipPath>
</defs>
</svg>
