<svg width="134" height="99" viewBox="0 0 134 99" fill="none" xmlns="http://www.w3.org/2000/svg">
<path d="M125.358 53.5863C125.358 78.435 97.4394 98.5789 63 98.5789C28.5605 98.5789 0.641846 78.435 0.641846 53.5863C0.641846 28.7376 28.5605 8.59375 63 8.59375C97.4394 8.59375 125.358 28.7376 125.358 53.5863Z" fill="#A9A5FF" fill-opacity="0.1"/>
<path d="M130.762 7.19619C130.358 7.19619 131.828 7.19619 108.156 7.19619C107.255 7.19619 106.061 6.09343 119.183 15.9264L130.762 7.19619Z" fill="#B9B7FF"/>
<path d="M133.887 25.5757C133.887 9.60404 133.978 10.4679 133.666 9.65918C119.073 20.5949 120.047 20.0619 119.183 20.0619C118.319 20.0619 119.183 20.503 104.7 9.65918C104.48 10.4862 104.48 9.69594 104.48 25.5757C104.48 26.5506 104.867 27.4855 105.556 28.1749C106.246 28.8643 107.181 29.2515 108.155 29.2515H130.211C131.186 29.2515 132.121 28.8643 132.81 28.1749C133.499 27.4855 133.887 26.5506 133.887 25.5757Z" fill="#B9B7FF"/>
<path d="M47.0118 58.1221L40.5055 64.61C39.4729 65.6438 38.8929 67.0452 38.8929 68.5064C38.8929 69.9675 39.4729 71.369 40.5055 72.4028L45.7068 77.6041C46.7407 78.6367 48.1421 79.2167 49.6032 79.2167C51.0644 79.2167 52.4658 78.6367 53.4997 77.6041L60.0059 71.1162L47.0118 58.1221Z" fill="#B9B7FF"/>
<path d="M61.2926 75.0127L56.1096 80.214L61.2926 85.397C61.9989 85.9754 62.8953 86.2703 63.8071 86.2242C64.7189 86.1781 65.5809 85.7944 66.2253 85.1477C66.8698 84.5009 67.2505 83.6376 67.2933 82.7256C67.3362 81.8136 67.0381 80.9183 66.4572 80.214L61.2926 75.0127Z" fill="#B9B7FF"/>
<path d="M49.1437 55.0514L63.0568 68.9645L85.9942 58.1024L60.0059 32.114L49.1437 55.0514Z" fill="#B9B7FF"/>
<path d="M71.0881 38.0136L80.094 47.0195C80.4286 45.7727 80.4289 44.4597 80.095 43.2127C79.7611 41.9657 79.1048 40.8286 78.1919 39.9157C77.2791 39.0029 76.142 38.3465 74.8949 38.0126C73.6479 37.6787 72.335 37.6791 71.0881 38.0136Z" fill="#B9B7FF"/>
<path d="M83.3843 36.5624C84.3952 36.5624 84.4319 36.2683 88.5857 32.1146C88.9318 31.7709 89.1272 31.3039 89.1289 30.8162C89.1306 30.3284 88.9385 29.86 88.5949 29.5139C88.2512 29.1678 87.7841 28.9724 87.2964 28.9707C86.8087 28.969 86.3403 29.1611 85.9942 29.5047L82.0978 33.4012C81.8333 33.6561 81.6512 33.9844 81.5751 34.3438C81.4991 34.7031 81.5324 35.0771 81.6709 35.4173C81.8093 35.7576 82.0466 36.0485 82.352 36.2526C82.6574 36.4567 83.017 36.5646 83.3843 36.5624Z" fill="#B9B7FF"/>
<path d="M77.4846 31.3417V25.8279C77.4846 25.3405 77.2909 24.873 76.9463 24.5283C76.6016 24.1836 76.1341 23.99 75.6466 23.99C75.1592 23.99 74.6917 24.1836 74.347 24.5283C74.0024 24.873 73.8087 25.3405 73.8087 25.8279V31.3417C73.8087 31.8292 74.0024 32.2967 74.347 32.6413C74.6917 32.986 75.1592 33.1796 75.6466 33.1796C76.1341 33.1796 76.6016 32.986 76.9463 32.6413C77.2909 32.2967 77.4846 31.8292 77.4846 31.3417Z" fill="#B9B7FF"/>
<path d="M92.188 40.532H86.6742C86.1868 40.532 85.7193 40.7256 85.3746 41.0703C85.0299 41.415 84.8363 41.8825 84.8363 42.3699C84.8363 42.8574 85.0299 43.3249 85.3746 43.6695C85.7193 44.0142 86.1868 44.2078 86.6742 44.2078H92.188C92.6755 44.2078 93.143 44.0142 93.4876 43.6695C93.8323 43.3249 94.026 42.8574 94.026 42.3699C94.026 41.8825 93.8323 41.415 93.4876 41.0703C93.143 40.7256 92.6755 40.532 92.188 40.532Z" fill="#B9B7FF"/>
</svg>
