<svg width="139" height="100" viewBox="0 0 139 100" fill="none" xmlns="http://www.w3.org/2000/svg">
<path d="M125.358 50.9926C125.358 75.8413 97.4394 95.9851 63 95.9851C28.5605 95.9851 0.641846 75.8413 0.641846 50.9926C0.641846 26.1439 28.5605 6 63 6C97.4394 6 125.358 26.1439 125.358 50.9926Z" fill="#FFAEDF" fill-opacity="0.1"/>
<g clip-path="url(#clip0_50_5093)">
<path d="M90.7453 27.6877C90.7406 27.1205 90.2792 26.6642 89.713 26.6642C89.7099 26.6642 89.7074 26.6642 89.7043 26.6642C89.1344 26.6689 88.6756 27.1349 88.6803 27.7052L88.6978 29.8508C82.7515 21.7114 73.2563 16.8877 63.0457 16.8877C53.199 16.8877 44.0867 21.2975 38.0449 28.9863C37.6929 29.4343 37.7708 30.083 38.2188 30.4356C38.6674 30.7881 39.3161 30.7101 39.6686 30.2616C45.3161 23.074 53.8369 18.9522 63.0457 18.9522C72.6235 18.9522 81.519 23.4962 87.0741 31.1458H84.8903C84.3205 31.1458 83.8581 31.6082 83.8581 32.178C83.8581 32.7478 84.3205 33.2103 84.8903 33.2103H89.7497C90.3133 33.2103 90.7866 32.7329 90.7819 32.1692L90.7453 27.6877Z" fill="#FFA5DB"/>
<path d="M94.6661 48.0982C94.6661 44.2381 93.9605 40.4703 92.569 36.8987C92.3621 36.3681 91.7639 36.1049 91.2328 36.3119C90.7017 36.5183 90.4385 37.1175 90.646 37.6486C91.944 40.9797 92.6021 44.4956 92.6021 48.0982C92.6021 60.4822 84.8338 71.3286 73.1352 75.4995L74.2511 73.7926C74.5629 73.3157 74.4287 72.6757 73.9518 72.364C73.4743 72.0523 72.8349 72.1859 72.5226 72.6634L70.0607 76.4306C69.7174 76.955 69.9352 77.6863 70.5081 77.9397L74.6558 79.7689C75.8733 80.3031 76.7069 78.4177 75.4888 77.8799L74.1928 77.3085C86.5107 72.749 94.6661 61.2337 94.6661 48.0982Z" fill="#FFA5DB"/>
<path d="M64.2703 77.2174C63.8641 77.2334 63.4559 77.2416 63.0456 77.2416C46.7483 77.2416 33.4894 64.1676 33.4894 48.0969C33.4894 45.2535 34.6843 41.6979 35.8228 38.6961L36.7333 40.7105C37.283 41.9255 39.1622 41.0713 38.6151 39.861L36.6905 35.6024C36.4525 35.077 35.8048 34.8458 35.2876 35.1043L31.2365 37.1338C30.7266 37.3887 30.5207 38.0091 30.7756 38.5191C31.0311 39.029 31.6525 39.236 32.1609 38.98L33.8234 38.1474C32.6456 41.27 31.4254 44.9722 31.4254 48.0974C31.4254 65.3062 45.6102 79.3067 63.0461 79.3067C63.4838 79.3067 63.9194 79.2974 64.3524 79.2803C64.9222 79.2581 65.3656 78.7776 65.3428 78.2083C65.3201 77.638 64.8386 77.1957 64.2703 77.2174C64.8386 77.1957 63.8647 77.2339 64.2703 77.2174Z" fill="#FFA5DB"/>
<path d="M62.7152 35.302C63.0146 34.3807 64.318 34.3807 64.6173 35.3021L67.034 42.7397C67.1678 43.1518 67.5518 43.4307 67.985 43.4307H75.8055C76.7742 43.4307 77.177 44.6703 76.3933 45.2397L70.0664 49.8365C69.7159 50.0911 69.5692 50.5425 69.7031 50.9545L72.1198 58.3922C72.4191 59.3135 71.3646 60.0797 70.5809 59.5103L64.254 54.9135C63.9036 54.6589 63.429 54.6589 63.0785 54.9135L56.7516 59.5103C55.9679 60.0797 54.9134 59.3135 55.2128 58.3922L57.6294 50.9545C57.7633 50.5425 57.6166 50.0911 57.2661 49.8365L50.9393 45.2397C50.1555 44.6703 50.5583 43.4307 51.527 43.4307H59.3475C59.7807 43.4307 60.1647 43.1518 60.2985 42.7397L62.7152 35.302Z" fill="#FFA5DB"/>
</g>
<path d="M117.694 17.4033C115.063 17.4033 112.923 19.4891 112.923 22.0535C112.923 24.6172 115.063 26.7033 117.694 26.7033C120.325 26.7033 122.465 24.6175 122.465 22.0535C122.465 19.4894 120.325 17.4033 117.694 17.4033Z" fill="#FFA5DB"/>
<path d="M129.592 19.434H128.256C128.024 18.445 127.618 17.4458 127.059 16.4947L128.013 15.5422C128.599 14.9576 128.611 13.9923 128.075 13.3691C127.824 13.0771 126.738 11.9675 126.459 11.7003C125.889 11.1543 124.871 11.0523 124.277 11.6427L123.328 12.589C122.436 12.0478 121.45 11.6315 120.429 11.3639V10.0145C120.429 9.16603 119.762 8.47574 118.917 8.44932C118.529 8.43713 116.969 8.42799 116.582 8.44932C115.758 8.49505 115.071 9.18128 115.071 10.0145V11.4012C114.079 11.6329 113.077 12.0393 112.123 12.5968L111.167 11.643C110.582 11.0594 109.617 11.0476 108.994 11.5814C108.701 11.8317 107.589 12.9162 107.321 13.195C106.774 13.764 106.671 14.7835 107.264 15.3763L108.21 16.3209C107.669 17.2111 107.252 18.1943 106.984 19.2122H105.63C104.787 19.2122 104.141 19.979 104.118 20.7773C104.107 21.1648 104.097 22.7215 104.118 23.1073C104.164 23.9324 104.852 24.617 105.685 24.617H107.021C107.253 25.6056 107.66 26.6052 108.218 27.5566L107.263 28.5091C106.678 29.0937 106.666 30.059 107.202 30.6822C107.453 30.9742 108.54 32.0841 108.819 32.3514C109.39 32.8981 110.405 32.997 111.001 32.4086L111.949 31.4623C112.842 32.0032 113.828 32.4198 114.849 32.6874V34.0368C114.849 34.8795 115.618 35.5234 116.416 35.5464C116.804 35.5576 118.364 35.5678 118.751 35.5464C119.575 35.5007 120.262 34.8145 120.262 33.9813V32.6501C121.254 32.4185 122.256 32.0117 123.21 31.4545L124.166 32.4083C124.751 32.9922 125.716 33.0037 126.34 32.4696C126.632 32.2193 127.744 31.1347 128.012 30.8563C128.559 30.2873 128.662 29.2678 128.069 28.6747L127.123 27.7304C127.664 26.8396 128.082 25.8566 128.349 24.8388H129.704C130.355 24.8388 130.97 24.3263 131.151 23.717C131.246 23.3993 131.195 20.7377 131.21 20.8596C131.105 20.0203 130.439 19.434 129.592 19.434ZM117.694 28.0579C114.316 28.0579 111.568 25.3645 111.568 22.0533C111.568 18.742 114.316 16.0483 117.694 16.0483C121.072 16.0483 123.82 18.742 123.82 22.0533C123.82 25.3645 121.072 28.0579 117.694 28.0579Z" fill="#FFA5DB"/>
<defs>
<clipPath id="clip0_50_5093">
<rect width="64" height="64" fill="white" transform="translate(30.6663 16.375)"/>
</clipPath>
</defs>
</svg>
