<svg width="20" height="20" viewBox="0 0 20 20" fill="none" xmlns="http://www.w3.org/2000/svg">
<path fill-rule="evenodd" clip-rule="evenodd" d="M15.7792 5.97032C15.9196 6.11094 15.9985 6.30157 15.9985 6.50032C15.9985 6.69907 15.9196 6.88969 15.7792 7.03032L9.27918 13.5303C9.13855 13.6708 8.94793 13.7497 8.74918 13.7497C8.55043 13.7497 8.3598 13.6708 8.21918 13.5303L4.96918 10.2803C4.89549 10.2117 4.83639 10.1289 4.7954 10.0369C4.7544 9.94486 4.73236 9.84554 4.73059 9.74484C4.72881 9.64414 4.74733 9.54411 4.78505 9.45072C4.82278 9.35733 4.87892 9.2725 4.95014 9.20128C5.02136 9.13006 5.10619 9.07391 5.19958 9.03619C5.29297 8.99847 5.393 8.97995 5.4937 8.98172C5.5944 8.9835 5.69372 9.00554 5.78571 9.04654C5.87771 9.08753 5.96051 9.14663 6.02918 9.22032L8.74918 11.9403L14.7192 5.97032C14.8598 5.82987 15.0504 5.75098 15.2492 5.75098C15.4479 5.75098 15.6386 5.82987 15.7792 5.97032Z" fill="#019501"/>
</svg>
