<svg width="350" height="51" viewBox="0 0 350 51" fill="none" xmlns="http://www.w3.org/2000/svg">
<path d="M84.4538 39.2649H90.382L95.6697 21.594L100.984 39.2649H106.892L115.236 12.3147H108.221L103.581 29.1491L98.5086 12.3147H92.8702L87.7654 29.2035L83.1842 12.3147H76.1692L84.4538 39.2649Z" fill="#303030"/>
<path d="M119.2 7.21554H126.107V1.14572H119.2V7.21554ZM119.365 39.2657H125.952V12.3154H119.365V39.2657Z" fill="#303030"/>
<path d="M141.946 39.8061C147.051 39.8061 152.467 37.0544 152.467 30.8216C152.467 20.9198 138.761 23.3488 138.761 19.2748C138.761 18.0068 140.078 16.9545 142.241 16.9545C143.367 16.9484 144.471 17.2688 145.419 17.877C146.367 18.4851 147.119 19.355 147.583 20.3814L152.687 17.6033C151.693 15.7763 150.21 14.2615 148.404 13.2279C146.599 12.1942 144.542 11.6823 142.463 11.7493C137.256 11.7493 132.454 14.4466 132.454 20.1475C132.454 29.6705 145.997 26.6224 145.997 31.1542C145.997 32.5836 144.679 34.3653 141.626 34.3653C140.313 34.3727 139.034 33.9414 137.993 33.14C136.952 32.3385 136.208 31.2126 135.879 29.9406L130.641 32.2526C131.485 34.5448 133.034 36.5105 135.065 37.8676C137.096 39.2247 139.505 39.9033 141.946 39.8061Z" fill="#303030"/>
<path d="M169.544 39.8071C171.633 39.8686 173.709 39.4648 175.622 38.6249C177.535 37.785 179.237 36.53 180.605 34.9509L176.072 30.9856C175.276 31.9166 174.281 32.6569 173.16 33.152C172.04 33.6471 170.823 33.8842 169.598 33.846C165.361 33.846 163.42 31.4714 162.847 27.9375H181.354C181.539 27.087 181.62 26.2173 181.596 25.3472C181.596 19.3318 178.548 11.7503 169.106 11.7503C159.987 11.7503 155.886 18.8723 155.886 25.8874C155.893 33.1428 160.263 39.8071 169.544 39.8071ZM162.853 23.1884C163.474 19.8159 165.174 17.28 169.058 17.28C170.375 17.1735 171.686 17.5383 172.758 18.3093C173.831 19.0802 174.594 20.2072 174.912 21.489C175.067 22.0419 175.139 22.6144 175.128 23.1884H162.853Z" fill="#303030"/>
<path d="M187.138 39.2663H193.504V27.8826C193.504 21.0306 196.715 18.1669 199.79 18.1669C200.84 18.1729 201.864 18.4923 202.731 19.0841L205.725 13.6878C205.07 13.0545 204.296 12.5569 203.448 12.2234C202.601 11.89 201.695 11.7273 200.784 11.7447C199.2 11.7444 197.654 12.235 196.359 13.1491C195.065 14.0633 194.085 15.356 193.555 16.8495V12.3161H187.133L187.138 39.2663Z" fill="#303030"/>
<path d="M209.31 39.2658H215.897V24.5096C215.897 19.8148 218.217 17.8189 221.912 17.8189C225.285 17.8189 227.067 20.3812 227.067 23.9118V39.2625H233.654V23.0753C233.654 17.4369 230.876 11.7442 223.806 11.7442C222.298 11.7384 220.806 12.0668 219.44 12.7057C218.073 13.3446 216.865 14.2782 215.902 15.4394V12.3107H209.315L209.31 39.2658Z" fill="#303030"/>
<path d="M251.989 39.8074C253.834 39.8379 255.666 39.4924 257.374 38.792C259.081 38.0916 260.628 37.0509 261.921 35.7334C263.213 34.4159 264.224 32.849 264.891 31.1283C265.559 29.4076 265.869 27.5691 265.803 25.7247C265.823 23.898 265.48 22.0855 264.795 20.392C264.11 18.6986 263.096 17.1579 261.811 15.8591C260.526 14.5603 258.997 13.5293 257.311 12.8256C255.625 12.1219 253.816 11.7595 251.99 11.7595C250.163 11.7595 248.354 12.1219 246.668 12.8256C244.982 13.5293 243.453 14.5603 242.168 15.8591C240.883 17.1579 239.869 18.6986 239.184 20.392C238.499 22.0855 238.156 23.898 238.176 25.7247C238.11 27.569 238.42 29.4075 239.087 31.1282C239.754 32.8489 240.765 34.4158 242.057 35.7333C243.349 37.0509 244.896 38.0916 246.604 38.792C248.311 39.4924 250.143 39.8379 251.989 39.8074ZM251.989 34.1427C247.025 34.1427 245.03 30.1494 245.03 25.7247C245.03 21.2999 247.025 17.4417 251.989 17.4417C256.98 17.4417 258.949 21.2999 258.949 25.7247C258.949 30.1494 256.98 34.1427 251.989 34.1427Z" fill="#303030"/>
<path d="M280.56 39.8072C282.23 39.8061 283.889 39.533 285.471 38.9986V33.0359C284.303 33.6184 283.025 33.9494 281.721 34.0074C279.994 34.0074 278.726 33.2516 278.726 30.6629V17.8185H285.478V12.3168H278.726V0.931396L272.251 5.6262V12.3168H267.805V17.8202H272.149V31.8173C272.144 36.7311 275.299 39.8072 280.56 39.8072Z" fill="#303030"/>
<path d="M291.376 7.21557H298.292V1.14575H291.376V7.21557ZM291.541 39.2657H298.128V12.3155H291.541V39.2657Z" fill="#303030"/>
<path d="M307.566 39.2653H314.364V17.8184H320.649V12.315H314.364V9.374C314.364 7.26949 315.525 6.43295 316.845 6.43295C317.594 6.47085 318.319 6.70359 318.95 7.10811L321.109 1.68545C319.577 0.977738 317.913 0.600684 316.226 0.578857C311.693 0.578857 307.619 3.46556 307.619 8.69884V12.3216H302.629V17.825H307.569L307.566 39.2653Z" fill="#303030"/>
<path d="M327.422 50.8661H334.598L350 12.3147H342.771L335.866 31.0429L329.067 12.3196H321.841L332.38 38.5371L327.422 50.8661Z" fill="#303030"/>
<path d="M35.0607 44.0972L19.0875 22.8084C18.7253 22.3262 18.4643 21.7758 18.3202 21.1902C18.1762 20.6047 18.152 19.996 18.2493 19.4008C18.3465 18.8057 18.5631 18.2364 18.886 17.727C19.2089 17.2177 19.6314 16.779 20.1282 16.4372C21.1433 15.7254 22.394 15.4331 23.6194 15.6212C24.8448 15.8093 25.9503 16.4632 26.7052 17.4466L38.8992 33.7031L42.1926 29.3244C42.9478 28.3414 44.0532 27.6877 45.2785 27.4996C46.5038 27.3115 47.7544 27.6036 48.7696 28.315C49.2653 28.6583 49.6871 29.0975 50.0101 29.6066C50.3331 30.1157 50.5508 30.6844 50.6502 31.2791C50.7467 31.8733 50.7218 32.481 50.5772 33.0654C50.4326 33.6498 50.1712 34.1989 49.8087 34.6796L43.0028 43.7481C42.8641 43.9313 42.7122 44.1041 42.5483 44.2651C42.2836 44.5861 41.9761 44.8692 41.6344 45.1066C40.6192 45.818 39.3686 46.11 38.1433 45.922C36.918 45.7339 35.8126 45.0802 35.0574 44.0972H35.0607ZM16.8743 44.0972L0.896181 22.8084C0.534036 22.3261 0.273157 21.7756 0.129233 21.19C-0.0146918 20.6043 -0.0386892 19.9956 0.0586836 19.4005C0.156056 18.8053 0.372788 18.236 0.695845 17.7268C1.0189 17.2175 1.44161 16.7789 1.93856 16.4372C2.95364 15.7254 4.20435 15.4331 5.42976 15.6212C6.65517 15.8093 7.76064 16.4632 8.51556 17.4466L24.4887 38.7338C25.0381 39.4573 25.3526 40.3317 25.39 41.2394C25.4274 42.1471 25.1858 43.0444 24.6979 43.8106C24.3748 44.3208 23.9526 44.761 23.4563 45.105C22.4409 45.8159 21.1904 46.1078 19.9652 45.9197C18.7401 45.7317 17.6347 45.0782 16.8793 44.0955L16.8743 44.0972Z" fill="#303030"/>
<path d="M48.2429 13.9963C47.8812 13.134 48.8079 12.2981 49.6285 12.7463L52.7529 14.4531C53.1143 14.6506 53.5602 14.6033 53.8722 14.3344L56.5691 12.0102C57.2774 11.3998 58.3588 12.0228 58.186 12.9417L57.5283 16.4407C57.4522 16.8454 57.635 17.2549 57.987 17.4685L61.0309 19.3152C61.8303 19.8002 61.572 21.0212 60.6446 21.1409L57.1137 21.5965C56.7052 21.6492 56.3723 21.9496 56.2779 22.3504L55.4622 25.816C55.248 26.7261 54.0069 26.8577 53.6065 26.0128L52.0821 22.7954C51.9057 22.4233 51.5172 22.1994 51.1068 22.2336L47.5588 22.5287C46.627 22.6062 46.1183 21.4665 46.7982 20.8247L49.387 18.3806C49.6864 18.0979 49.7792 17.6592 49.6199 17.2794L48.2429 13.9963Z" fill="#645CFC"/>
</svg>
